<svg xmlns="http://www.w3.org/2000/svg" width="31.49" height="31.53" viewBox="0 0 31.49 31.53">
  <path id="Icon_zocial-call" data-name="Icon zocial-call" d="M34.691,9.133a2.32,2.32,0,0,0-.591-1.26L29.376,3.149q-.552-.472-.827.157l-3.819,7.165a1.031,1.031,0,0,0,.2,1.22l1.732,1.732a1.959,1.959,0,0,1,.551,1.22,6.01,6.01,0,0,1-1.22,3.031,25.887,25.887,0,0,1-2.4,3.151l-1.22,1.259c-.368.368-.839.821-1.418,1.358A23.767,23.767,0,0,1,18.1,25.57a6.386,6.386,0,0,1-3.13,1.319,1.714,1.714,0,0,1-1.26-.512L11.659,24.33a.865.865,0,0,0-1.18-.157L3.589,28.227a.575.575,0,0,0-.315.413.5.5,0,0,0,.157.453l4.724,4.724a2.314,2.314,0,0,0,1.259.589,9.524,9.524,0,0,0,4.351-.531,19.687,19.687,0,0,0,4.487-2.146q2.067-1.338,3.838-2.715t2.835-2.362l1.024-.985q.393-.393,1.043-1.083t2.266-2.715a39.538,39.538,0,0,0,2.8-3.957,23.08,23.08,0,0,0,2.047-4.39A9.338,9.338,0,0,0,34.691,9.133Z" transform="translate(-3.267 -2.947)" fill="#fff"/>
</svg>
