<svg xmlns="http://www.w3.org/2000/svg" width="52.78" height="52.78" viewBox="0 0 52.78 52.78">
  <path id="Icon_awesome-facebook-square" data-name="Icon awesome-facebook-square" d="M47.125,2.25H5.655A5.655,5.655,0,0,0,0,7.905v41.47A5.655,5.655,0,0,0,5.655,55.03h16.17V37.086H14.4V28.64h7.422V22.2c0-7.322,4.359-11.367,11.035-11.367a44.965,44.965,0,0,1,6.541.57v7.187H35.717c-3.63,0-4.762,2.253-4.762,4.563V28.64h8.1l-1.3,8.446H30.955V55.03h16.17a5.655,5.655,0,0,0,5.655-5.655V7.905A5.655,5.655,0,0,0,47.125,2.25Z" transform="translate(0 -2.25)" fill="#fff"/>
</svg>
