<svg xmlns="http://www.w3.org/2000/svg" width="98.1" height="85.995" viewBox="0 0 98.1 85.995">
  <path id="Icon_map-food" data-name="Icon map-food" d="M98.6,25.778,90.561,88.819H63.4L55.388,25.463H88.55L95.1,2.825l3.716,1.12L92.531,25.731l6.072.047ZM51.548,62.25s1.016-8.175-13.07-8.175H16.046c-14.065,0-13.07,8.175-13.07,8.175ZM2.976,80.644s-1,8.175,13.07,8.175H38.48c14.085,0,13.07-8.175,13.07-8.175H2.976Zm46.465-4.087c2.305,0,4.167-2.277,4.167-5.107,0-2.847-1.862-5.111-4.167-5.111H4.889C2.594,66.338.72,68.6.72,71.449c0,2.831,1.874,5.107,4.169,5.107Z" transform="translate(-0.72 -2.825)" fill="#68003e"/>
</svg>
