<svg xmlns="http://www.w3.org/2000/svg" width="31" height="30.99" viewBox="0 0 31 30.99">
  <g id="Group_10" data-name="Group 10" transform="translate(0)">
    <g id="Icon_ionic-ios-home" data-name="Icon ionic-ios-home" transform="translate(0)">
      <path id="Path_8" data-name="Path 8" d="M3.777,14.358,17.857,3.713a1.712,1.712,0,0,1,2.041,0l6.131,4.7V5.449a.145.145,0,0,1,.149-.141h4.47a.145.145,0,0,1,.149.141v6.483L33.978,14.4a.975.975,0,0,1,.395.717.965.965,0,0,1-.305.752,1.068,1.068,0,0,1-.737.288,1.089,1.089,0,0,1-.656-.218L18.974,5.534a.139.139,0,0,0-.1-.028.188.188,0,0,0-.1.028L5.081,15.9a1.089,1.089,0,0,1-.656.218,1.063,1.063,0,0,1-.737-.288.947.947,0,0,1-.313-.752A.984.984,0,0,1,3.777,14.358Z" transform="translate(-3.374 -3.375)" fill="#fff"/>
    </g>
    <path id="Path_7" data-name="Path 7" d="M18.681,7.324a.3.3,0,0,1,.379,0L30.877,16.7a.315.315,0,0,1,.114.233V34.215a.151.151,0,0,1-.152.15H22.658a.151.151,0,0,1-.152-.15V23.7a.151.151,0,0,0-.152-.15H15.386a.151.151,0,0,0-.152.15V34.215a.151.151,0,0,1-.152.15H6.9a.151.151,0,0,1-.152-.15V16.934a.3.3,0,0,1,.114-.233Z" transform="translate(-3.367 -3.375)" fill="#fff"/>
  </g>
</svg>
