<svg xmlns="http://www.w3.org/2000/svg" width="52.78" height="52.78" viewBox="0 0 52.78 52.78">
  <path id="Icon_awesome-twitter-square" data-name="Icon awesome-twitter-square" d="M47.125,2.25H5.655A5.656,5.656,0,0,0,0,7.905v41.47A5.656,5.656,0,0,0,5.655,55.03h41.47a5.656,5.656,0,0,0,5.655-5.655V7.905A5.656,5.656,0,0,0,47.125,2.25ZM41.364,20.959c.024.33.024.672.024,1,0,10.214-7.776,21.984-21.984,21.984A21.882,21.882,0,0,1,7.54,40.48a16.278,16.278,0,0,0,1.861.094,15.492,15.492,0,0,0,9.59-3.3,7.737,7.737,0,0,1-7.222-5.36,8.328,8.328,0,0,0,3.487-.141,7.727,7.727,0,0,1-6.185-7.587v-.094a7.722,7.722,0,0,0,3.487.978,7.71,7.71,0,0,1-3.44-6.433,7.63,7.63,0,0,1,1.049-3.9A21.939,21.939,0,0,0,26.1,22.82a7.743,7.743,0,0,1,13.183-7.057,15.141,15.141,0,0,0,4.9-1.861,7.707,7.707,0,0,1-3.393,4.253,15.376,15.376,0,0,0,4.453-1.2A16.264,16.264,0,0,1,41.364,20.959Z" transform="translate(0 -2.25)" fill="#fff"/>
</svg>
